<?xml version="1.0" standalone="no"?><!DOCTYPE svg PUBLIC "-//W3C//DTD SVG 1.1//EN" "http://www.w3.org/Graphics/SVG/1.1/DTD/svg11.dtd"><svg t="1662438745429" class="icon" viewBox="0 0 1024 1024" version="1.1" xmlns="http://www.w3.org/2000/svg" p-id="2337" xmlns:xlink="http://www.w3.org/1999/xlink" width="200" height="200"><path d="M669.184 369.152c10.24 0 19.968 0.512 30.208 2.048-27.136-126.464-162.304-220.16-316.416-220.16-172.544 0-313.856 117.76-313.856 266.752 0 86.016 47.104 157.184 125.44 211.968l-31.232 94.208 109.568-54.784c39.424 7.68 70.656 15.872 110.08 15.872 9.728 0 19.456-0.512 29.184-1.024-6.144-20.992-9.728-43.008-9.728-65.536-0.512-137.728 117.248-249.344 266.752-249.344z m-168.96-84.992c23.552 0 39.424 15.36 39.424 38.912s-15.872 39.424-39.424 39.424-47.104-15.872-47.104-39.424c0-23.04 23.552-38.912 47.104-38.912zM280.576 362.496c-23.552 0-47.104-15.872-47.104-39.424s23.552-38.912 47.104-38.912 39.424 15.36 39.424 38.912c-0.512 24.064-15.872 39.424-39.424 39.424z m674.816 251.392c0-125.44-125.44-227.84-266.752-227.84-149.504 0-266.752 102.4-266.752 227.84s117.76 227.84 266.752 227.84c31.232 0 62.976-7.68 94.208-15.872l86.016 47.104-23.552-78.336c62.976-47.104 110.08-110.08 110.08-180.736z m-353.28-38.912c-15.872 0-31.232-15.36-31.232-31.232 0-15.872 15.872-31.232 31.232-31.232 23.552 0 39.424 15.872 39.424 31.232 0 15.36-15.36 31.232-39.424 31.232z m172.544 0c-15.36 0-31.232-15.36-31.232-31.232 0-15.872 15.872-31.232 31.232-31.232 23.552 0 39.424 15.872 39.424 31.232 0 15.36-15.872 31.232-39.424 31.232z" p-id="2338"></path></svg>